<svg xmlns="http://www.w3.org/2000/svg" fill="none" viewBox="0 0 920 230" height="230" width="920">
<path stroke-linecap="round" stroke-width="18.9265" stroke="#04272D" d="M44.9951 166.655L156.049 166.655C178.287 166.655 196.314 148.627 196.314 126.389C196.314 104.151 178.287 86.1235 156.049 86.1235L85.6975 86.1235"></path>
<path stroke-linecap="round" stroke-width="18.9265" stroke="#04272D" d="M151.368 126.204L81.1747 126.204C58.9867 126.204 40.9998 108.205 40.9998 86.0017C40.9998 63.7988 58.9867 45.7998 81.1747 45.7998L187.075 45.7998"></path>
<circle fill="#04272D" r="18.4779" cy="85.2523" cx="85.6966"></circle>
<circle fill="#04272D" r="18.4779" cy="126.203" cx="151.119"></circle>
<path fill="#04272D" d="M359.072 75.709H381.26C380.825 54.2055 362.491 38.979 335.394 38.979C308.67 38.979 288.596 54.019 288.658 76.5169C288.658 94.7887 301.647 105.292 322.591 110.699L337.072 114.428C350.807 117.908 359.88 122.196 359.942 132.078C359.88 142.954 349.564 150.225 334.524 150.225C320.105 150.225 308.918 143.762 307.986 130.4H285.302C286.234 155.695 305.065 169.927 334.71 169.927C365.225 169.927 382.938 154.7 383 132.264C382.938 110.202 364.728 100.133 345.586 95.5966L333.654 92.6135C323.213 90.1275 311.901 85.7149 312.026 75.0875C312.088 65.5166 320.664 58.4937 335.083 58.4937C348.818 58.4937 357.892 64.8951 359.072 75.709ZM402.561 168H425.059V72.5394H402.561V168ZM413.872 58.9909C421.019 58.9909 426.861 53.5218 426.861 46.8098C426.861 40.0355 421.019 34.5664 413.872 34.5664C406.663 34.5664 400.821 40.0355 400.821 46.8098C400.821 53.5218 406.663 58.9909 413.872 58.9909ZM483.619 169.678C500.026 169.678 507.422 159.921 510.964 152.96H512.331V168H534.456V40.7192H511.896V88.3252H510.964C507.546 81.4267 500.523 71.2964 483.681 71.2964C461.618 71.2964 444.278 88.5738 444.278 120.394C444.278 151.841 461.121 169.678 483.619 169.678ZM489.896 151.22C475.042 151.22 467.211 138.169 467.211 120.27C467.211 102.495 474.918 89.7546 489.896 89.7546C504.376 89.7546 512.331 101.749 512.331 120.27C512.331 138.79 504.252 151.22 489.896 151.22ZM600.692 169.864C622.941 169.864 638.229 158.988 642.207 142.395L621.201 140.033C618.155 148.112 610.698 152.338 601.002 152.338C586.459 152.338 576.826 142.768 576.64 126.422H643.139V119.524C643.139 86.0257 623.003 71.2964 599.511 71.2964C572.165 71.2964 554.329 91.3705 554.329 120.829C554.329 150.785 571.917 169.864 600.692 169.864ZM576.702 111.258C577.386 99.0769 586.397 88.8224 599.821 88.8224C612.748 88.8224 621.449 98.269 621.574 111.258H576.702ZM663.167 168H685.292V152.96H686.597C690.139 159.921 697.535 169.678 713.942 169.678C736.44 169.678 753.283 151.841 753.283 120.394C753.283 88.5738 735.943 71.2964 713.88 71.2964C697.038 71.2964 690.015 81.4267 686.597 88.3252H685.665V40.7192H663.167V168ZM685.23 120.27C685.23 101.749 693.185 89.7546 707.665 89.7546C722.643 89.7546 730.35 102.495 730.35 120.27C730.35 138.169 722.519 151.22 707.665 151.22C693.309 151.22 685.23 138.79 685.23 120.27ZM783.145 203.798C800.671 203.798 810.801 194.786 816.208 179.56L854.554 72.6637L830.502 72.5394L808.44 144.632H807.445L785.445 72.5394H761.579L796.196 169.989L794.27 175.147C790.106 186.023 783.518 186.769 773.698 183.91L768.478 201.436C771.523 202.679 776.992 203.798 783.145 203.798Z"></path>
</svg>
