<svg xmlns="http://www.w3.org/2000/svg" fill="none" height="169" width="569" style=""><rect id="backgroundrect" width="100%" height="100%" x="0" y="0" fill="none" stroke="none" class="" style=""/>





<g class="currentLayer" style=""><title>Layer 1</title><path fill="#04272D" d="M73.769998046875,41.142601379394534 H95.95799804687499 C95.52299804687499,19.639101379394532 77.18899804687499,4.4126013793945305 50.091998046875005,4.4126013793945305 C23.367998046875016,4.4126013793945305 3.2939980468750036,19.45260137939453 3.3559980468750155,41.95050137939454 C3.3559980468750155,60.22230137939454 16.34499804687499,70.72560137939453 37.28899804687501,76.13260137939453 L51.769998046875,79.86160137939453 C65.50499804687502,83.34160137939453 74.577998046875,87.62960137939453 74.63999804687501,97.51160137939453 C74.577998046875,108.38760137939454 64.26199804687502,115.65860137939453 49.221998046875,115.65860137939453 C34.80299804687502,115.65860137939453 23.615998046875006,109.19560137939453 22.68399804687499,95.83360137939454 H-0.000001953124979081622 C0.9319980468749804,121.12860137939452 19.762998046874998,135.36060137939452 49.40799804687498,135.36060137939452 C79.92299804687502,135.36060137939452 97.63599804687499,120.13360137939452 97.697998046875,97.69760137939454 C97.63599804687499,75.63560137939453 79.42599804687501,65.56660137939453 60.28399804687501,61.030201379394526 L48.351998046874996,58.04710137939453 C37.91099804687502,55.56110137939453 26.59899804687501,51.14850137939453 26.72399804687501,40.52110137939454 C26.785998046875022,30.950201379394528 35.36199804687499,23.927301379394528 49.78099804687503,23.927301379394528 C63.515998046874984,23.927301379394528 72.589998046875,30.32870137939453 73.769998046875,41.142601379394534 zM117.25899804687498,133.43360137939453 H139.75699804687503 V37.97300137939453 H117.25899804687498 V133.43360137939453 zM128.569998046875,24.424501379394535 C135.716998046875,24.424501379394535 141.558998046875,18.95540137939453 141.558998046875,12.243401379394534 C141.558998046875,5.46910137939453 135.716998046875,0.0000013793945328188784 128.569998046875,0.0000013793945328188784 C121.36099804687501,0.0000013793945328188784 115.51899804687503,5.46910137939453 115.51899804687503,12.243401379394534 C115.51899804687503,18.95540137939453 121.36099804687501,24.424501379394535 128.569998046875,24.424501379394535 zM198.31699804687503,135.11160137939453 C214.723998046875,135.11160137939453 222.11999804687503,125.35460137939452 225.661998046875,118.39360137939454 H227.02899804687502 V133.43360137939453 H249.15399804687502 V6.152801379394532 H226.59399804687502 V53.75880137939453 H225.661998046875 C222.243998046875,46.86030137939453 215.22099804687502,36.73000137939454 198.37899804687498,36.73000137939454 C176.315998046875,36.73000137939454 158.97599804687502,54.00740137939454 158.97599804687502,85.82760137939454 C158.97599804687502,117.27460137939454 175.81899804687498,135.11160137939453 198.31699804687503,135.11160137939453 zM204.59399804687502,116.65360137939453 C189.73999804687497,116.65360137939453 181.908998046875,103.60260137939454 181.908998046875,85.70360137939453 C181.908998046875,67.92860137939454 189.615998046875,55.18820137939453 204.59399804687502,55.18820137939453 C219.07399804687498,55.18820137939453 227.02899804687502,67.18260137939453 227.02899804687502,85.70360137939453 C227.02899804687502,104.22360137939452 218.949998046875,116.65360137939453 204.59399804687502,116.65360137939453 zM315.389998046875,135.29760137939454 C337.63899804687503,135.29760137939454 352.92699804687504,124.42160137939453 356.904998046875,107.82860137939454 L335.898998046875,105.46660137939452 C332.852998046875,113.54560137939453 325.395998046875,117.77160137939453 315.69999804687495,117.77160137939453 C301.15699804687495,117.77160137939453 291.523998046875,108.20160137939453 291.337998046875,91.85560137939453 H357.836998046875 V84.95760137939453 C357.836998046875,51.45930137939453 337.70099804687504,36.73000137939454 314.20899804687497,36.73000137939454 C286.86299804687496,36.73000137939454 269.02699804687495,56.80410137939454 269.02699804687495,86.26260137939452 C269.02699804687495,116.21860137939453 286.61499804687503,135.29760137939454 315.389998046875,135.29760137939454 zM291.399998046875,76.69160137939453 C292.08399804687497,64.51050137939453 301.09499804687505,54.25600137939453 314.518998046875,54.25600137939453 C327.44599804687505,54.25600137939453 336.14699804687496,63.70260137939454 336.27199804687496,76.69160137939453 H291.399998046875 zM377.86499804687503,133.43360137939453 H399.98999804687503 V118.39360137939454 H401.294998046875 C404.836998046875,125.35460137939452 412.23299804687497,135.11160137939453 428.639998046875,135.11160137939453 C451.13799804687505,135.11160137939453 467.980998046875,117.27460137939454 467.980998046875,85.82760137939454 C467.980998046875,54.00740137939454 450.640998046875,36.73000137939454 428.577998046875,36.73000137939454 C411.735998046875,36.73000137939454 404.712998046875,46.86030137939453 401.294998046875,53.75880137939453 H400.36299804687496 V6.152801379394532 H377.86499804687503 V133.43360137939453 zM399.927998046875,85.70360137939453 C399.927998046875,67.18260137939453 407.88299804687495,55.18820137939453 422.36299804687496,55.18820137939453 C437.34099804687503,55.18820137939453 445.047998046875,67.92860137939454 445.047998046875,85.70360137939453 C445.047998046875,103.60260137939454 437.216998046875,116.65360137939453 422.36299804687496,116.65360137939453 C408.00699804687497,116.65360137939453 399.927998046875,104.22360137939452 399.927998046875,85.70360137939453 zM497.842998046875,169.23160137939453 C515.368998046875,169.23160137939453 525.498998046875,160.21960137939453 530.905998046875,144.99360137939453 L569.251998046875,38.09730137939454 L545.199998046875,37.97300137939453 L523.137998046875,110.06560137939454 H522.142998046875 L500.14299804687505,37.97300137939453 H476.27699804687495 L510.893998046875,135.42260137939454 L508.967998046875,140.58060137939452 C504.803998046875,151.45660137939453 498.21599804687503,152.20260137939454 488.395998046875,149.34360137939453 L483.17599804687495,166.86960137939454 C486.220998046875,168.11260137939453 491.68999804687496,169.23160137939453 497.842998046875,169.23160137939453 z" id="svg_5" class=""/></g></svg>