<svg width="402" height="270" viewBox="0 0 402 270" fill="none" xmlns="http://www.w3.org/2000/svg">
<path d="M21.0004 14.8467L389.401 14.8467C396.101 14.8467 401.501 20.2467 401.501 26.9467V231.747C401.501 238.447 396.101 243.847 389.401 243.847H21.0004C14.3004 243.847 8.90039 238.447 8.90039 231.747V26.9467C8.90039 20.2467 14.3004 14.8467 21.0004 14.8467Z" fill="#EEF9F9"/>
<path d="M1.30078 24.8467H385.601V214.247C385.601 220.947 380.201 226.347 373.501 226.347H13.4008C6.70078 226.347 1.30078 220.947 1.30078 214.247V24.8467Z" fill="white"/>
<path d="M385.6 24.8469V10.2469C385.7 7.44694 383.1 5.04694 380.3 5.04694H6.59967C3.79967 5.04694 1.19967 7.44694 1.29967 10.2469V24.8469H385.6Z" fill="#D7EAE5"/>
<path d="M42.4997 19.0469C37.9997 19.1469 37.9997 12.0469 42.4997 12.1469C46.9997 12.0469 46.9997 19.1469 42.4997 19.0469Z" fill="white"/>
<path d="M24.5997 15.5469C24.4997 11.4469 30.7997 10.8469 31.4997 14.8469C32.3997 19.7469 24.4997 20.5469 24.5997 15.5469Z" fill="white"/>
<path d="M13.4997 19.0469C8.99967 19.1469 8.99967 12.0469 13.4997 12.1469C18.0997 12.0469 18.0997 19.1469 13.4997 19.0469Z" fill="white"/>
<path d="M46.4004 42.8469H60.4004" stroke="#99ADA7" stroke-width="0.6033" stroke-linecap="round" stroke-linejoin="round"/>
<path d="M46.4004 48.5469H60.4004" stroke="#99ADA7" stroke-width="0.6033" stroke-linecap="round" stroke-linejoin="round"/>
<path d="M46.4004 53.8469H60.4004" stroke="#99ADA7" stroke-width="0.6033" stroke-linecap="round" stroke-linejoin="round"/>
<path d="M111.9 40.0469V162.047" stroke="#99ADA7" stroke-width="0.5343" stroke-linecap="round" stroke-linejoin="round"/>
<path d="M98.7004 75.7468H46.6004" stroke="#99ADA7" stroke-width="0.6033" stroke-linecap="round" stroke-linejoin="round"/>
<path d="M98.7004 83.6469H46.6004" stroke="#99ADA7" stroke-width="0.6033" stroke-linecap="round" stroke-linejoin="round"/>
<path d="M98.7004 92.9468H46.6004" stroke="#99ADA7" stroke-width="0.6033" stroke-linecap="round" stroke-linejoin="round"/>
<path d="M98.7004 102.147H46.6004" stroke="#99ADA7" stroke-width="0.6033" stroke-linecap="round" stroke-linejoin="round"/>
<path d="M98.7004 111.447H46.6004" stroke="#99ADA7" stroke-width="0.6033" stroke-linecap="round" stroke-linejoin="round"/>
<path d="M98.7004 120.747H46.6004" stroke="#99ADA7" stroke-width="0.6033" stroke-linecap="round" stroke-linejoin="round"/>
<path d="M98.7004 129.947H46.6004" stroke="#99ADA7" stroke-width="0.6033" stroke-linecap="round" stroke-linejoin="round"/>
<path d="M315.7 46.4468H343.1C346.6 46.5468 349.9 43.6468 349.8 40.0468C349.9 36.5468 346.6 33.6468 343.1 33.6468H315.7C307 33.4468 307 46.6468 315.7 46.4468Z" fill="#DEFFF5" stroke="#99ADA7" stroke-width="0.6033" stroke-linecap="round" stroke-linejoin="round"/>
<path d="M197.8 53.7468H179.9V57.8468H197.8V53.7468Z" fill="#DEFFF5"/>
<path d="M191.7 59.6469H179.9V63.8469H191.7V59.6469Z" fill="#DEFFF5"/>
<path d="M186.7 65.6469H179.9V69.7468H186.7V65.6469Z" fill="#DEFFF5"/>
<g opacity="0.2">
<path opacity="0.2" d="M197.8 53.7468H179.9V57.8468H197.8V53.7468Z" fill="#99ADA7"/>
<path opacity="0.2" d="M191.7 59.6469H179.9V63.8469H191.7V59.6469Z" fill="#99ADA7"/>
<path opacity="0.2" d="M186.7 65.6469H179.9V69.7468H186.7V65.6469Z" fill="#99ADA7"/>
</g>
<path d="M148.8 99.4468V111.847H154.9V99.4468H148.8Z" fill="#DEFFF5"/>
<path d="M157.6 103.647V111.847H163.7V103.647H157.6Z" fill="#DEFFF5"/>
<path d="M166.3 107.147V111.847H172.4V107.147H166.3Z" fill="#DEFFF5"/>
<g opacity="0.2">
<path opacity="0.2" d="M148.8 99.4468V111.847H154.9V99.4468H148.8Z" fill="#99ADA7"/>
<path opacity="0.2" d="M157.6 103.647V111.847H163.7V103.647H157.6Z" fill="#99ADA7"/>
<path opacity="0.2" d="M166.3 107.147V111.847H172.4V107.147H166.3Z" fill="#99ADA7"/>
</g>
<path d="M147.4 120.847H221C224.9 120.947 228.4 117.447 228.3 113.547C227.4 110.447 230.6 48.3468 226.2 47.7468C226.7 43.3468 149.8 46.4468 147.5 45.6468C143.6 45.5468 140.1 49.0468 140.2 52.9468V113.547C140 117.447 143.5 120.947 147.4 120.847Z" stroke="#99ADA7" stroke-width="0.6033" stroke-miterlimit="10"/>
<path d="M193.8 100.047H220" stroke="#99ADA7" stroke-width="0.6033" stroke-miterlimit="10"/>
<path d="M193.8 102.847H220" stroke="#99ADA7" stroke-width="0.6033" stroke-miterlimit="10"/>
<path d="M193.8 105.647H220" stroke="#99ADA7" stroke-width="0.6033" stroke-miterlimit="10"/>
<path d="M193.8 108.447H220" stroke="#99ADA7" stroke-width="0.6033" stroke-miterlimit="10"/>
<path d="M193.8 111.247H220" stroke="#99ADA7" stroke-width="0.6033" stroke-miterlimit="10"/>
<path d="M148 54.3469H174.2" stroke="#99ADA7" stroke-width="0.6033" stroke-miterlimit="10"/>
<path d="M148 57.1469H174.2" stroke="#99ADA7" stroke-width="0.6033" stroke-miterlimit="10"/>
<path d="M148 59.9468H174.2" stroke="#99ADA7" stroke-width="0.6033" stroke-miterlimit="10"/>
<path d="M148 62.7468H174.2" stroke="#99ADA7" stroke-width="0.6033" stroke-miterlimit="10"/>
<path d="M148 65.5468H174.2" stroke="#99ADA7" stroke-width="0.6033" stroke-miterlimit="10"/>
<path d="M216.7 76.3469L221.7 78.9469L221.1 64.8469L209.2 72.3469L214.2 74.9469L210.4 82.1469C209.7 82.1469 209.1 82.3469 208.6 82.7469L202 79.6469C201.9 74.7469 194.2 76.4469 196.2 80.9469L187.5 90.3469C187.1 90.2469 186.6 90.1469 186.2 90.2469L173.7 74.4469C175.8 69.2469 166.5 68.7469 168 74.1469L153.8 88.6469C150.9 87.4469 148.3 91.4469 150.6 93.6469C152.6 95.8469 156.5 93.6469 155.7 90.7469L170.1 76.0469C170.6 76.1469 171.1 76.2469 171.5 76.1469L183.9 91.8469C181.6 97.1469 191 97.7469 189.5 92.2469L198.4 82.6469C199.2 82.7469 200 82.6469 200.6 82.1469L207.4 85.3469C207.8 90.4469 215.7 87.7469 212.9 83.4469L216.7 76.3469Z" fill="#99ADA7"/>
<path d="M311.7 173.247L303.1 159.847L289 170.247L276 144.447L241.6 166.347V184.047H319.2V169.147L311.7 173.247Z" fill="#99ADA7" stroke="#99ADA7" stroke-width="0.6033" stroke-linecap="round" stroke-linejoin="round"/>
<path d="M313.2 183.347L303.9 169.247L288.3 175.547L270.1 158.047L241.6 169.547V195.147H319.2V179.147L313.2 183.347Z" fill="#DEFFF5" stroke="#99ADA7" stroke-width="0.6033" stroke-miterlimit="10"/>
<path opacity="0.2" d="M313.2 183.347L303.9 169.247L288.3 175.547L270.1 158.047L241.6 169.547V195.147H319.2V179.147L313.2 183.347Z" fill="#99ADA7"/>
<path d="M313.2 183.347L303.9 169.247L288.3 175.547L270.1 158.047L241.6 169.547V195.147H319.2V179.147L313.2 183.347Z" stroke="#99ADA7" stroke-width="0.6033" stroke-miterlimit="10"/>
<path d="M285.7 137.947H279.5C277.8 137.847 277.2 140.447 278.7 141.147L276.5 143.447L280.5 141.347H285.7C287.9 141.447 287.9 137.947 285.7 137.947Z" fill="#DEFFF5"/>
<path opacity="0.2" d="M285.7 137.947H279.5C277.8 137.847 277.2 140.447 278.7 141.147L276.5 143.447L280.5 141.347H285.7C287.9 141.447 287.9 137.947 285.7 137.947Z" fill="#99ADA7"/>
<path d="M313 153.047H306.8C305.1 152.947 304.5 155.547 306 156.247L303.8 158.547L307.8 156.447H313C315.2 156.547 315.2 153.047 313 153.047Z" fill="#DEFFF5"/>
<path opacity="0.2" d="M313 153.047H306.8C305.1 152.947 304.5 155.547 306 156.247L303.8 158.547L307.8 156.447H313C315.2 156.547 315.2 153.047 313 153.047Z" fill="#99ADA7"/>
<path d="M244.8 203.947H318.4C322.3 204.047 325.8 200.547 325.7 196.647C324.8 193.547 328 131.447 323.6 130.847C323.9 127.847 287.5 128.347 264 128.747C253.5 128.947 245.5 129.047 244.8 128.747C240.9 128.647 237.4 132.147 237.5 136.047V196.647C237.3 200.547 240.8 204.047 244.8 203.947Z" stroke="#99ADA7" stroke-width="0.6033" stroke-miterlimit="10"/>
<path d="M243 136.847H248.1" stroke="#99ADA7" stroke-width="0.6033" stroke-miterlimit="10"/>
<path d="M243 142.347H248.1" stroke="#99ADA7" stroke-width="0.6033" stroke-miterlimit="10"/>
<path d="M243 147.847H248.1" stroke="#99ADA7" stroke-width="0.6033" stroke-miterlimit="10"/>
<path d="M243 153.447H248.1" stroke="#99ADA7" stroke-width="0.6033" stroke-miterlimit="10"/>
<path d="M243 158.947H248.1" stroke="#99ADA7" stroke-width="0.6033" stroke-miterlimit="10"/>
<path d="M259.6 61.2468C239.8 61.1468 237 90.5468 256.4 94.2468C280.2 98.2468 283.7 62.0468 259.6 61.2468ZM259.6 89.7468C245.8 90.0468 243.7 68.7468 257.4 66.4468C274.1 63.4468 276.6 89.4468 259.6 89.7468Z" fill="#DEFFF5" stroke="#99ADA7" stroke-width="0.6033" stroke-miterlimit="10"/>
<g opacity="0.2">
<path opacity="0.2" d="M259.6 61.2468C239.8 61.1468 237 90.5468 256.4 94.2468C280.2 98.2468 283.7 62.0468 259.6 61.2468ZM259.6 89.7468C245.8 90.0468 243.7 68.7468 257.4 66.4468C274.1 63.4468 276.6 89.4468 259.6 89.7468Z" fill="#99ADA7"/>
</g>
<path d="M259.6 61.2468C239.8 61.1468 237 90.5468 256.4 94.2468C280.2 98.2468 283.7 62.0468 259.6 61.2468ZM259.6 89.7468C245.8 90.0468 243.7 68.7468 257.4 66.4468C274.1 63.4468 276.6 89.4468 259.6 89.7468Z" stroke="#99ADA7" stroke-width="0.6033" stroke-miterlimit="10"/>
<path d="M259.6 61.2469C255.1 61.2469 250.6 63.1469 247.5 66.3469L251 69.7469C268 54.9469 281.9 87.6469 259.5 89.6469V94.5468C281.8 94.8468 281.8 60.9469 259.6 61.2469Z" fill="#99ADA7" stroke="#99ADA7" stroke-width="0.6033" stroke-linecap="round" stroke-linejoin="round"/>
<path d="M300.8 61.2468C281 61.1468 278.2 90.5468 297.6 94.2468C321.3 98.2468 324.9 62.0468 300.8 61.2468ZM300.8 89.7468C287 90.0468 284.9 68.7468 298.5 66.4468C315.2 63.3468 317.7 89.3468 300.8 89.7468Z" fill="#DEFFF5" stroke="#99ADA7" stroke-width="0.6033" stroke-miterlimit="10"/>
<g opacity="0.2">
<path opacity="0.2" d="M300.8 61.2468C281 61.1468 278.2 90.5468 297.6 94.2468C321.3 98.2468 324.9 62.0468 300.8 61.2468ZM300.8 89.7468C287 90.0468 284.9 68.7468 298.5 66.4468C315.2 63.3468 317.7 89.3468 300.8 89.7468Z" fill="#99ADA7"/>
</g>
<path d="M300.8 61.2468C281 61.1468 278.2 90.5468 297.6 94.2468C321.3 98.2468 324.9 62.0468 300.8 61.2468ZM300.8 89.7468C287 90.0468 284.9 68.7468 298.5 66.4468C315.2 63.3468 317.7 89.3468 300.8 89.7468Z" stroke="#99ADA7" stroke-width="0.6033" stroke-miterlimit="10"/>
<path d="M307.3 62.5469L305.4 67.0469C317 71.5469 313.3 90.0469 300.8 89.6469V94.5469C318.5 95.1469 323.8 68.9469 307.3 62.5469Z" fill="#99ADA7" stroke="#99ADA7" stroke-width="0.6033" stroke-linecap="round" stroke-linejoin="round"/>
<path d="M244.8 100.047H271" stroke="#99ADA7" stroke-width="0.6033" stroke-miterlimit="10"/>
<path d="M244.8 102.847H271" stroke="#99ADA7" stroke-width="0.6033" stroke-miterlimit="10"/>
<path d="M244.8 105.647H271" stroke="#99ADA7" stroke-width="0.6033" stroke-miterlimit="10"/>
<path d="M244.8 108.447H271" stroke="#99ADA7" stroke-width="0.6033" stroke-miterlimit="10"/>
<path d="M244.8 111.247H271" stroke="#99ADA7" stroke-width="0.6033" stroke-miterlimit="10"/>
<path d="M288.1 100.047H314.3" stroke="#99ADA7" stroke-width="0.6033" stroke-miterlimit="10"/>
<path d="M288.1 102.847H314.3" stroke="#99ADA7" stroke-width="0.6033" stroke-miterlimit="10"/>
<path d="M288.1 105.647H314.3" stroke="#99ADA7" stroke-width="0.6033" stroke-miterlimit="10"/>
<path d="M288.1 108.447H314.3" stroke="#99ADA7" stroke-width="0.6033" stroke-miterlimit="10"/>
<path d="M288.1 111.247H314.3" stroke="#99ADA7" stroke-width="0.6033" stroke-miterlimit="10"/>
<path d="M266.9 53.3469H293.1" stroke="#99ADA7" stroke-width="0.6033" stroke-miterlimit="10"/>
<path d="M266.9 56.1469H293.1" stroke="#99ADA7" stroke-width="0.6033" stroke-miterlimit="10"/>
<path d="M164.8 164.247H152.6V184.247H164.8V164.247Z" fill="#DEFFF5" stroke="#99ADA7" stroke-width="0.6033" stroke-miterlimit="10"/>
<path opacity="0.2" d="M164.8 164.247H152.6V184.247H164.8V164.247Z" fill="#99ADA7"/>
<path d="M164.8 164.247H152.6V184.247H164.8V164.247Z" stroke="#99ADA7" stroke-width="0.6033" stroke-miterlimit="10"/>
<path d="M181.6 154.247H169.4V176.447H181.6V154.247Z" fill="#DEFFF5" stroke="#99ADA7" stroke-width="0.6033" stroke-miterlimit="10"/>
<path opacity="0.2" d="M181.6 154.247H169.4V176.447H181.6V154.247Z" fill="#99ADA7"/>
<path d="M181.6 154.247H169.4V176.447H181.6V154.247Z" stroke="#99ADA7" stroke-width="0.6033" stroke-miterlimit="10"/>
<path d="M198.5 146.047H186.3V160.747H198.5V146.047Z" fill="#DEFFF5" stroke="#99ADA7" stroke-width="0.6033" stroke-miterlimit="10"/>
<path opacity="0.2" d="M198.5 146.047H186.3V160.747H198.5V146.047Z" fill="#99ADA7"/>
<path d="M198.5 146.047H186.3V160.747H198.5V146.047Z" stroke="#99ADA7" stroke-width="0.6033" stroke-miterlimit="10"/>
<path d="M164.8 184.247H152.6V192.447H164.8V184.247Z" fill="#99ADA7" stroke="#99ADA7" stroke-width="0.6033" stroke-linecap="round" stroke-linejoin="round"/>
<path d="M181.6 176.347H169.4V192.447H181.6V176.347Z" fill="#99ADA7" stroke="#99ADA7" stroke-width="0.6033" stroke-linecap="round" stroke-linejoin="round"/>
<path d="M214.4 154.247H202.2V176.447H214.4V154.247Z" fill="#DEFFF5" stroke="#99ADA7" stroke-width="0.6033" stroke-miterlimit="10"/>
<path opacity="0.2" d="M214.4 154.247H202.2V176.447H214.4V154.247Z" fill="#99ADA7"/>
<path d="M214.4 154.247H202.2V176.447H214.4V154.247Z" stroke="#99ADA7" stroke-width="0.6033" stroke-miterlimit="10"/>
<path d="M214.4 176.347H202.2V192.447H214.4V176.347Z" fill="#99ADA7" stroke="#99ADA7" stroke-width="0.6033" stroke-linecap="round" stroke-linejoin="round"/>
<path d="M198.5 160.647H186.3V192.447H198.5V160.647Z" fill="#99ADA7" stroke="#99ADA7" stroke-width="0.6033" stroke-linecap="round" stroke-linejoin="round"/>
<path d="M179.5 146.047C178.8 146.247 171.3 145.647 171 146.447C170.4 147.047 170.7 148.747 170.6 149.447C170.5 151.547 173.5 150.847 174.7 150.947L175.7 152.847L176.7 150.947C177.9 150.847 180.9 151.547 180.8 149.447C180.8 148.447 181.2 146.047 179.5 146.047Z" fill="#DEFFF5"/>
<path opacity="0.5" d="M179.5 146.047C178.8 146.247 171.2 145.647 171 146.447C170.4 147.047 170.7 148.747 170.6 149.447C170.5 151.547 173.5 150.847 174.7 150.947L175.7 152.847L176.7 150.947C177.9 150.847 180.9 151.547 180.8 149.447C180.8 148.447 181.2 146.047 179.5 146.047Z" fill="white"/>
<path d="M179.5 146.047C178.8 146.247 171.3 145.647 171 146.447C170.4 147.047 170.7 148.747 170.6 149.447C170.5 151.547 173.5 150.847 174.7 150.947L175.7 152.847L176.7 150.947C177.9 150.847 180.9 151.547 180.8 149.447C180.8 148.447 181.2 146.047 179.5 146.047Z" stroke="#99ADA7" stroke-width="0.6033" stroke-linecap="round" stroke-linejoin="round"/>
<path d="M162.5 156.347C161.8 156.547 154.3 155.947 154 156.747C153.4 157.347 153.7 159.047 153.6 159.747C153.5 161.847 156.5 161.147 157.7 161.247L158.7 163.147L159.7 161.247C160.9 161.147 163.9 161.847 163.8 159.747C163.7 158.647 164.2 156.347 162.5 156.347Z" fill="#DEFFF5"/>
<path opacity="0.5" d="M162.5 156.347C161.8 156.547 154.3 155.947 154 156.747C153.4 157.347 153.7 159.047 153.6 159.747C153.5 161.847 156.5 161.147 157.7 161.247L158.7 163.147L159.7 161.247C160.9 161.147 163.9 161.847 163.8 159.747C163.7 158.647 164.2 156.347 162.5 156.347Z" fill="white"/>
<path d="M162.5 156.347C161.8 156.547 154.3 155.947 154 156.747C153.4 157.347 153.7 159.047 153.6 159.747C153.5 161.847 156.5 161.147 157.7 161.247L158.7 163.147L159.7 161.247C160.9 161.147 163.9 161.847 163.8 159.747C163.7 158.647 164.2 156.347 162.5 156.347Z" stroke="#99ADA7" stroke-width="0.6033" stroke-linecap="round" stroke-linejoin="round"/>
<path d="M196.2 137.747C195.5 137.947 187.9 137.347 187.7 138.147C187.1 138.747 187.4 140.447 187.3 141.147C187.2 143.247 190.2 142.547 191.4 142.647L192.4 144.547L193.4 142.647C194.4 142.447 197.1 143.147 197.4 141.747C197.5 140.647 198 137.847 196.2 137.747Z" fill="#DEFFF5"/>
<path opacity="0.5" d="M196.2 137.747C195.5 137.947 188 137.347 187.7 138.147C187.1 138.747 187.4 140.447 187.3 141.147C187.2 143.247 190.2 142.547 191.4 142.647L192.4 144.547L193.4 142.647C194.4 142.447 197.1 143.147 197.4 141.747C197.5 140.647 198 137.847 196.2 137.747Z" fill="white"/>
<path d="M196.2 137.747C195.5 137.947 187.9 137.347 187.7 138.147C187.1 138.747 187.4 140.447 187.3 141.147C187.2 143.247 190.2 142.547 191.4 142.647L192.4 144.547L193.4 142.647C194.4 142.447 197.1 143.147 197.4 141.747C197.5 140.647 198 137.847 196.2 137.747Z" stroke="#99ADA7" stroke-width="0.6033" stroke-linecap="round" stroke-linejoin="round"/>
<path d="M212.2 145.947C211.5 146.147 204 145.547 203.7 146.347C203.1 146.947 203.4 148.647 203.3 149.347C203.2 151.447 206.2 150.747 207.4 150.847L208.4 152.747L209.4 150.847C210.4 150.647 213.1 151.347 213.4 149.947C213.5 148.747 214 146.047 212.2 145.947Z" fill="#DEFFF5"/>
<path opacity="0.5" d="M212.2 145.947C211.5 146.147 204 145.547 203.7 146.347C203.1 146.947 203.4 148.647 203.3 149.347C203.2 151.447 206.2 150.747 207.4 150.847L208.4 152.747L209.4 150.847C210.4 150.647 213.1 151.347 213.4 149.947C213.5 148.747 214 146.047 212.2 145.947Z" fill="white"/>
<path d="M212.2 145.947C211.5 146.147 204 145.547 203.7 146.347C203.1 146.947 203.4 148.647 203.3 149.347C203.2 151.447 206.2 150.747 207.4 150.847L208.4 152.747L209.4 150.847C210.4 150.647 213.1 151.347 213.4 149.947C213.5 148.747 214 146.047 212.2 145.947Z" stroke="#99ADA7" stroke-width="0.6033" stroke-linecap="round" stroke-linejoin="round"/>
<path d="M153 134.947H170.3" stroke="#99ADA7" stroke-width="0.6033" stroke-miterlimit="10"/>
<path d="M153 137.047H170.3" stroke="#99ADA7" stroke-width="0.6033" stroke-miterlimit="10"/>
<path d="M153 139.147H170.3" stroke="#99ADA7" stroke-width="0.6033" stroke-miterlimit="10"/>
<path d="M153 141.247H170.3" stroke="#99ADA7" stroke-width="0.6033" stroke-miterlimit="10"/>
<path d="M153 143.347H170.3" stroke="#99ADA7" stroke-width="0.6033" stroke-miterlimit="10"/>
<path fill-rule="evenodd" clip-rule="evenodd" d="M129.799 158.846C133.899 156.546 138.899 159.446 138.899 164.146V183.947C137.799 192.347 130.699 190.546 125.499 186.746C123.399 190.246 120.499 197.646 115.199 194.446C109.799 191.446 114.699 185.146 116.699 181.646C97.0992 171.946 122.299 164.346 129.799 158.846Z" fill="#00CD8E"/>
<path d="M98.5992 195.846H72.3992C53.7992 195.946 53.7992 224.146 72.3992 224.246H98.6992C117.199 224.146 117.199 195.846 98.5992 195.846Z" fill="#00CD8E"/>
<path d="M71.8992 204.146L75.9992 211.146V215.346H77.9992V211.146L82.0992 204.146H79.7992L77.0992 209.146H76.9992L74.2992 204.146H71.8992ZM85.4992 215.446C90.7992 215.746 90.7992 206.446 85.4992 206.746C80.1992 206.446 80.1992 215.746 85.4992 215.446ZM85.5992 213.846C82.8992 213.946 82.8992 208.146 85.5992 208.346C88.1992 208.246 88.1992 214.046 85.5992 213.846ZM96.5992 211.746C96.5992 214.246 93.1992 214.346 93.1992 211.946V206.946H91.1992V212.346C90.8992 215.746 95.3992 216.546 96.4992 213.946H96.5992V215.446H98.4992V207.046H96.4992V211.746H96.5992Z" fill="white"/>
<path d="M339.901 240.947H372.401C380.201 240.947 386.601 247.347 386.601 255.147C386.601 262.947 380.201 269.347 372.401 269.347H339.901C332.101 269.347 325.701 262.947 325.701 255.147C325.701 247.247 332.001 240.947 339.901 240.947Z" fill="#04272D"/>
<path d="M346.601 249.146C346.101 251.346 348.301 258.946 344.101 258.746C339.901 259.046 342.101 251.346 341.601 249.146H339.601C339.901 252.846 337.801 260.846 344.101 260.546C350.401 260.846 348.301 252.846 348.601 249.146H346.601ZM357.401 254.146C356.101 248.546 345.901 254.246 353.001 256.746C358.401 257.146 353.801 260.946 352.301 257.846L350.401 258.046C350.601 261.446 357.801 261.246 357.601 257.846C357.901 254.946 353.101 256.146 352.601 254.246C352.601 252.846 355.501 253.046 355.601 254.346L357.401 254.146ZM362.901 260.546C364.901 260.546 366.201 259.546 366.601 258.146L364.701 257.946C363.901 259.946 360.601 259.046 360.801 256.746H366.701C367.001 253.746 365.201 251.746 362.901 251.846C357.601 251.546 357.501 260.946 362.901 260.546ZM360.801 255.346C360.801 252.846 364.801 252.646 364.801 255.346H360.801ZM368.401 260.346H370.401C370.601 258.346 369.301 252.446 373.201 253.646V251.846C372.001 251.646 370.801 252.046 370.401 253.346H370.301V251.946H368.401V260.346Z" fill="white"/>
<path fill-rule="evenodd" clip-rule="evenodd" d="M316.401 203.846C312.301 201.546 307.301 204.446 307.301 209.146V228.947C308.501 237.347 315.501 235.546 320.701 231.746C322.801 235.246 325.701 242.646 331.001 239.446C336.401 236.446 331.501 230.146 329.501 226.646C349.001 216.946 323.901 209.346 316.401 203.846Z" fill="#04272D"/>
</svg>
