<svg width="12" height="12" viewBox="0 0 12 12" fill="none" xmlns="http://www.w3.org/2000/svg">
<path d="M5.66682 11.2221C6.27793 11.2221 6.77793 10.7221 6.77793 10.111H4.55571C4.55571 10.7221 5.05571 11.2221 5.66682 11.2221ZM9.00015 7.88879V5.11102C9.00015 3.40546 8.0946 1.97768 6.50015 1.5999V1.22213C6.50015 0.761016 6.12793 0.388794 5.66682 0.388794C5.20571 0.388794 4.83349 0.761016 4.83349 1.22213V1.5999C3.2446 1.97768 2.33349 3.3999 2.33349 5.11102V7.88879L1.22237 8.9999V9.55546H10.1113V8.9999L9.00015 7.88879ZM7.88904 8.44435H3.4446V5.11102C3.4446 3.73324 4.28348 2.61102 5.66682 2.61102C7.05015 2.61102 7.88904 3.73324 7.88904 5.11102V8.44435ZM3.21126 1.26657L2.41682 0.472127C1.08349 1.48879 0.205707 3.05546 0.12793 4.83324H1.23904C1.27839 4.12869 1.47617 3.44209 1.81763 2.82456C2.1591 2.20704 2.63547 1.67449 3.21126 1.26657ZM10.0946 4.83324H11.2057C11.1224 3.05546 10.2446 1.48879 8.91682 0.472127L8.12793 1.26657C8.70126 1.6765 9.1755 2.20963 9.51582 2.82683C9.85615 3.44402 10.0539 4.12961 10.0946 4.83324Z" fill="#04272D"/>
</svg>
