<svg width="14" height="14" viewBox="0 0 14 14" fill="none" xmlns="http://www.w3.org/2000/svg">
<path d="M11.4436 2.55579H2.55471C1.9436 2.55579 1.4436 3.05579 1.4436 3.6669V10.3336C1.4436 10.9447 1.9436 11.4447 2.55471 11.4447H11.4436C12.0547 11.4447 12.5547 10.9447 12.5547 10.3336V3.6669C12.5547 3.05579 12.0547 2.55579 11.4436 2.55579ZM4.57694 8.37245C4.57694 8.53356 4.4436 8.6669 4.28249 8.6669H4.23249C4.07138 8.6669 3.93805 8.53356 3.93805 8.37245V6.1669L3.68805 6.35023C3.62449 6.39115 3.54771 6.40627 3.47338 6.3925C3.39905 6.37873 3.33279 6.3371 3.28812 6.27612C3.24344 6.21514 3.22374 6.1394 3.23302 6.06438C3.2423 5.98936 3.27986 5.92071 3.33805 5.87245L3.99916 5.40023C4.05409 5.36155 4.11858 5.33871 4.18561 5.33419C4.25264 5.32967 4.31962 5.34365 4.37924 5.37461C4.43886 5.40557 4.48883 5.45231 4.52369 5.50973C4.55856 5.56715 4.57697 5.63305 4.57694 5.70023V8.37245ZM7.56027 8.6669H6.07694C5.85472 8.6669 5.67694 8.48912 5.67694 8.2669C5.67694 8.16134 5.72138 8.05579 5.7936 7.98356C6.32138 7.45579 6.67138 7.10579 6.86027 6.90579C7.08249 6.67245 7.16027 6.52245 7.16027 6.3169C7.16027 6.09468 6.98805 5.9169 6.71027 5.9169C6.52138 5.9169 6.3936 6.00579 6.31027 6.12245C6.22694 6.23356 6.08249 6.2669 5.95472 6.21134C5.91088 6.19341 5.87184 6.16549 5.84069 6.12982C5.80954 6.09415 5.78714 6.0517 5.77528 6.00586C5.76341 5.96001 5.7624 5.91203 5.77234 5.86572C5.78227 5.81942 5.80287 5.77607 5.83249 5.73912C5.91583 5.63356 6.03805 5.52801 6.20472 5.44467C6.58805 5.26134 7.02694 5.33356 7.28805 5.46134C7.76583 5.70579 7.7936 6.15023 7.7936 6.28356C7.7936 6.63912 7.62138 6.98356 7.28249 7.3169C7.1436 7.45579 6.88249 7.71134 6.50472 8.08912L6.52138 8.1169H7.56583C7.71583 8.1169 7.83805 8.23912 7.83805 8.38912C7.83805 8.53912 7.71027 8.6669 7.56027 8.6669ZM10.7492 8.19467C10.7047 8.2669 10.438 8.6669 9.77138 8.6669C9.75472 8.6669 9.08805 8.70023 8.75472 8.12245C8.67138 7.97801 8.73249 7.78912 8.88805 7.72801L8.95472 7.70023C9.07694 7.65023 9.21583 7.69467 9.28249 7.80579C9.36027 7.93912 9.49916 8.07801 9.77138 8.07801C9.99916 8.07801 10.2658 7.92245 10.2658 7.65023C10.2658 7.34467 9.99916 7.21134 9.68805 7.21134C9.61535 7.20989 9.54611 7.17998 9.49521 7.12804C9.44431 7.07611 9.41581 7.00628 9.41583 6.93356C9.41583 6.78912 9.52694 6.67245 9.66583 6.66134V6.65579C9.84916 6.65579 10.1547 6.57801 10.1547 6.25579C10.1547 6.03912 9.98249 5.89468 9.73805 5.89468C9.56027 5.89468 9.4436 5.9669 9.36583 6.06134C9.28805 6.16134 9.16027 6.20579 9.0436 6.15579L8.99916 6.13912C8.83249 6.07245 8.77694 5.86134 8.88805 5.72245C9.03805 5.52801 9.31027 5.33356 9.7436 5.33356C10.3492 5.33356 10.5992 5.68912 10.6436 5.75023C10.8269 6.02801 10.7992 6.39467 10.6547 6.62245C10.5714 6.74467 10.4769 6.83356 10.3658 6.88912V6.92801C10.5214 6.98912 10.6492 7.08356 10.7436 7.2169C10.9492 7.50579 10.9269 7.92245 10.7492 8.19467Z" fill="#04272D"/>
</svg>
