<svg width="14" height="14" viewBox="0 0 14 14" fill="none" xmlns="http://www.w3.org/2000/svg">
<path d="M4.36879 3.04595L1.22609 6.18864C1.00913 6.4056 1.00913 6.75736 1.22609 6.97432L4.76162 10.5099C4.97858 10.7268 5.33034 10.7268 5.5473 10.5099L8.68999 7.36716C8.90695 7.1502 8.90695 6.79844 8.68999 6.58148L5.15446 3.04595C4.9375 2.82899 4.58574 2.82899 4.36879 3.04595Z" stroke="#04272D" stroke-linecap="round" stroke-linejoin="round"/>
<path d="M7.70228 3.04595L4.55959 6.18864C4.34263 6.4056 4.34263 6.75736 4.55959 6.97432L7.70228 10.117C7.91924 10.334 8.271 10.334 8.48795 10.117L11.6307 6.97432C11.8476 6.75736 11.8476 6.4056 11.6307 6.18864L8.48795 3.04595C8.271 2.82899 7.91924 2.82899 7.70228 3.04595Z" stroke="#04272D" stroke-linecap="round" stroke-linejoin="round"/>
</svg>
