<svg width="16" height="16" viewBox="0 0 16 16" fill="none" xmlns="http://www.w3.org/2000/svg">
<g clip-path="url(#clip0)">
<path fill-rule="evenodd" clip-rule="evenodd" d="M2.37881 3.69624C2.22163 3.9713 2.13333 4.34435 2.13333 4.73333L2.13333 12.9333C2.13333 13.5224 1.65577 14 1.06667 14C0.477564 14 9.95424e-07 13.5224 1.04693e-06 12.9333L1.84539e-06 3.8C1.90722e-06 3.09276 0.280953 2.41448 0.78105 1.91438C1.28115 1.41428 1.95943 1.13333 2.66667 1.13333L13.3333 1.13333C14.0406 1.13333 14.7189 1.41428 15.219 1.91438C15.719 2.41448 16 3.09276 16 3.8L16 12.9333C16 13.5224 15.5224 14 14.9333 14C14.3442 14 13.8667 13.5224 13.8667 12.9333L13.8667 4.73334C13.8667 4.34435 13.7784 3.9713 13.6212 3.69624C13.464 3.42119 13.2508 3.26667 13.0286 3.26667L2.97143 3.26667C2.74915 3.26667 2.53598 3.42119 2.37881 3.69624Z" fill="#04272D"/>
<path d="M8 11.513C8.9975 11.513 9.75 10.7577 9.75 9.75652C9.75 8.75531 8.9975 8 8 8C7.0025 8 6.25 8.75531 6.25 9.75652C6.25 10.7577 7.0025 11.513 8 11.513ZM8.5 11.9888H7.5C6.1215 11.9888 5 13.1145 5 14.4981V15H11V14.4981C11 13.1145 9.8785 11.9888 8.5 11.9888Z" fill="#04272D"/>
<rect x="1" y="2" width="14" height="4" fill="#04272D"/>
</g>
<defs>
<clipPath id="clip0">
<rect width="16" height="16" fill="white"/>
</clipPath>
</defs>
</svg>
