<svg width="16" height="16" viewBox="0 0 16 16" fill="none" xmlns="http://www.w3.org/2000/svg">
<g clip-path="url(#clip0)">
<path fill-rule="evenodd" clip-rule="evenodd" d="M2.37881 3.69624C2.22163 3.9713 2.13333 4.34435 2.13333 4.73333L2.13333 13C2.13333 13.5523 1.68562 14 1.13333 14L1 14C0.447717 14 9.92815e-07 13.5523 1.0411e-06 13L1.84539e-06 3.8C1.90722e-06 3.09276 0.280953 2.41448 0.78105 1.91438C1.28115 1.41428 1.95943 1.13333 2.66667 1.13333L13.3333 1.13333C14.0406 1.13333 14.7189 1.41428 15.219 1.91438C15.719 2.41448 16 3.09276 16 3.8L16 13C16 13.5523 15.5523 14 15 14L14.8667 14C14.3144 14 13.8667 13.5523 13.8667 13L13.8667 4.73334C13.8667 4.34435 13.7784 3.9713 13.6212 3.69624C13.464 3.42119 13.2508 3.26667 13.0286 3.26667L2.97143 3.26667C2.74915 3.26667 2.53598 3.42119 2.37881 3.69624Z" fill="#04272D"/>
<rect x="1" y="3" width="14" height="4" fill="#04272D"/>
</g>
<defs>
<clipPath id="clip0">
<rect width="16" height="16" fill="white"/>
</clipPath>
</defs>
</svg>
