<svg width="32" height="25" viewBox="0 0 32 25" fill="none" xmlns="http://www.w3.org/2000/svg">
<path d="M13.4085 18.2755L10.9285 15.3719C10.5885 14.9742 10.0185 14.84 9.52848 15.0412L3.92851 17.3412C3.39351 17.5616 3.10351 18.1126 3.23351 18.6589L4.4335 23.6421C4.5585 24.1596 5.0385 24.5333 5.6035 24.5333C10.6385 24.5333 15.2884 22.9809 19.0884 20.3695L15.0884 17.4083C14.5435 17.7197 13.9835 18.0168 13.4085 18.2755ZM31.6884 21.9507L23.7534 16.0762C26.8934 12.2861 28.7984 7.51848 28.7984 2.30047C28.7984 1.76381 28.4134 1.29903 27.8684 1.17924L22.6684 0.0292675C22.1034 -0.0953132 21.5234 0.187389 21.2934 0.695295L18.8934 6.06185C18.6834 6.53142 18.8234 7.08245 19.2384 7.40349L22.2684 9.7801C21.6584 11.0307 20.8734 12.1903 19.9684 13.2684L2.27352 0.163431C1.92352 -0.0953132 1.42352 -0.0378144 1.14852 0.297595L0.168527 1.50507C-0.101472 1.84048 -0.0414722 2.31964 0.308526 2.57838L29.7284 24.3656C30.0784 24.6244 30.5784 24.5669 30.8534 24.2315L31.8334 23.0192C32.1034 22.6934 32.0384 22.2094 31.6884 21.9507Z" fill="#C4C4C4"/>
<path d="M13.4085 18.2755L10.9285 15.3719C10.5885 14.9742 10.0185 14.84 9.52848 15.0412L3.92851 17.3412C3.39351 17.5616 3.10351 18.1126 3.23351 18.6589L4.4335 23.6421C4.5585 24.1596 5.0385 24.5333 5.6035 24.5333C10.6385 24.5333 15.2884 22.9809 19.0884 20.3695L15.0884 17.4083C14.5435 17.7197 13.9835 18.0168 13.4085 18.2755ZM31.6884 21.9507L23.7534 16.0762C26.8934 12.2861 28.7984 7.51848 28.7984 2.30047C28.7984 1.76381 28.4134 1.29903 27.8684 1.17924L22.6684 0.0292675C22.1034 -0.0953132 21.5234 0.187389 21.2934 0.695295L18.8934 6.06185C18.6834 6.53142 18.8234 7.08245 19.2384 7.40349L22.2684 9.7801C21.6584 11.0307 20.8734 12.1903 19.9684 13.2684L2.27352 0.163431C1.92352 -0.0953132 1.42352 -0.0378144 1.14852 0.297595L0.168527 1.50507C-0.101472 1.84048 -0.0414722 2.31964 0.308526 2.57838L29.7284 24.3656C30.0784 24.6244 30.5784 24.5669 30.8534 24.2315L31.8334 23.0192C32.1034 22.6934 32.0384 22.2094 31.6884 21.9507Z" fill="white"/>
</svg>
